# xmcd
#
# Track frame offsets: 
#        150
#        13355
#        25773
#        38065
#        52642
#        61166
#        73709
#
# Disc length: 1126 seconds
#
# Revision: 0
# Processed by: cddbd v1.5.2PL0 Copyright (c) Steve Scherf et al.
# Submitted via: ExactAudioCopy v0.99pb5
#
DISCID=51046407
DTITLE=Steve Barnes and the Country Money Band - Wringer
DYEAR=2004
DGENRE=Country
TTITLE0=Don't Wait
TTITLE1=Blame It On Me
TTITLE2=Noble County
TTITLE3=Think Twice
TTITLE4=Jump On A Grenade
TTITLE5=Babe In The Woods
TTITLE6=Hard Times
EXTD=Independent Release\n
EXTT0=
EXTT1=
EXTT2=
EXTT3=
EXTT4=
EXTT5=
EXTT6=
PLAYORDER=
